<svg width="11" height="11" viewBox="0 0 11 11" fill="none" xmlns="http://www.w3.org/2000/svg">
<path d="M4.66667 8.16667H5.83333V5.83333H8.16667V4.66667H5.83333V2.33333H4.66667V4.66667H2.33333V5.83333H4.66667V8.16667ZM1.16667 10.5C0.845833 10.5 0.571181 10.3858 0.342708 10.1573C0.114236 9.92882 0 9.65417 0 9.33333V1.16667C0 0.845833 0.114236 0.571181 0.342708 0.342708C0.571181 0.114236 0.845833 0 1.16667 0H9.33333C9.65417 0 9.92882 0.114236 10.1573 0.342708C10.3858 0.571181 10.5 0.845833 10.5 1.16667V9.33333C10.5 9.65417 10.3858 9.92882 10.1573 10.1573C9.92882 10.3858 9.65417 10.5 9.33333 10.5H1.16667ZM1.16667 9.33333H9.33333V1.16667H1.16667V9.33333ZM1.16667 1.16667V9.33333V1.16667Z" fill="white"/>
</svg>
